<?xml version="1.0" encoding="UTF-8" standalone="no"?>
<!-- Created with Inkscape (http://www.inkscape.org/) -->

<svg
   xmlns:dc="http://purl.org/dc/elements/1.1/"
   xmlns:cc="http://creativecommons.org/ns#"
   xmlns:rdf="http://www.w3.org/1999/02/22-rdf-syntax-ns#"
   xmlns:svg="http://www.w3.org/2000/svg"
   xmlns="http://www.w3.org/2000/svg"
   xmlns:sodipodi="http://sodipodi.sourceforge.net/DTD/sodipodi-0.dtd"
   xmlns:inkscape="http://www.inkscape.org/namespaces/inkscape"
   width="297mm"
   height="210mm"
   viewBox="0 0 1052.3622 744.09448"
   id="svg3576"
   version="1.1"
   inkscape:version="0.91 r13725"
   sodipodi:docname="tabletop_griding.svg">
  <defs
     id="defs3578" />
  <sodipodi:namedview
     id="base"
     pagecolor="#ffffff"
     bordercolor="#666666"
     borderopacity="1.0"
     inkscape:pageopacity="0.0"
     inkscape:pageshadow="2"
     inkscape:zoom="0.35"
     inkscape:cx="-63.571429"
     inkscape:cy="425.09239"
     inkscape:document-units="px"
     inkscape:current-layer="layer1"
     showgrid="false"
     inkscape:window-width="1366"
     inkscape:window-height="705"
     inkscape:window-x="-8"
     inkscape:window-y="-8"
     inkscape:window-maximized="1" />
  <metadata
     id="metadata3581">
    <rdf:RDF>
      <cc:Work
         rdf:about="">
        <dc:format>image/svg+xml</dc:format>
        <dc:type
           rdf:resource="http://purl.org/dc/dcmitype/StillImage" />
        <dc:title />
      </cc:Work>
    </rdf:RDF>
  </metadata>
  <g
     inkscape:label="Capa 1"
     inkscape:groupmode="layer"
     id="layer1"
     transform="translate(0,-308.26772)">
    <path
       d="m 3.8393,312.71442 0,745.96958 m 40,-745.96958 0,745.96958 m 40,-745.96958 0,745.96958 m 40,-745.96958 0,745.96958 m 40,-745.96958 0,745.96958 m 40,-745.96958 0,745.96958 m 40,-745.96958 0,745.96958 m 40,-745.96958 0,745.96958 m 40,-745.96958 0,745.96958 m 40,-745.96958 0,745.96958 m 40,-745.96958 0,745.96958 m 40,-745.96958 0,745.96958 m 40,-745.96958 0,745.96958 m 40,-745.96958 0,745.96958 m 40,-745.96958 0,745.96958 m 40,-745.96958 0,745.96958 m 40,-745.96958 0,745.96958 m 40,-745.96958 0,745.96958 m 40,-745.96958 0,745.96958 m 40,-745.96958 0,745.96958 m 40,-745.96958 0,745.96958 m 40,-745.96958 0,745.96958 m 40,-745.96958 0,745.96958 m 40,-745.96958 0,745.96958 m 40,-745.96958 0,745.96958 m 40,-745.96958 0,745.96958 m 40,-745.96958 0,745.96958 m -1040,-745.96958 1054.2371,0 m -1054.2371,40 1054.2371,0 m -1054.2371,40 1054.2371,0 m -1054.2371,40 1054.2371,0 m -1054.2371,40 1054.2371,0 m -1054.2371,40 1054.2371,0 m -1054.2371,40 1054.2371,0 m -1054.2371,40 1054.2371,0 m -1054.2371,40 1054.2371,0 m -1054.2371,40 1054.2371,0 m -1054.2371,40 1054.2371,0 m -1054.2371,40 1054.2371,0 m -1054.2371,40 1054.2371,0 m -1054.2371,40 1054.2371,0 m -1054.2371,40 1054.2371,0 m -1054.2371,40 1054.2371,0 m -1054.2371,40 1054.2371,0 m -1054.2371,40 1054.2371,0 M 3.8393,1032.7144 l 1054.2371,0"
       style="fill:none;fill-opacity:0.75;fill-rule:evenodd;stroke:#000000;stroke-width:2pt;stroke-linecap:butt;stroke-linejoin:miter;stroke-opacity:1"
       id="path4136"
       inkscape:connector-curvature="0" />
  </g>
</svg>
