<?xml version="1.0" encoding="UTF-8" standalone="no"?>
<!-- Created with Inkscape (http://www.inkscape.org/) -->

<svg
   xmlns:dc="http://purl.org/dc/elements/1.1/"
   xmlns:cc="http://creativecommons.org/ns#"
   xmlns:rdf="http://www.w3.org/1999/02/22-rdf-syntax-ns#"
   xmlns:svg="http://www.w3.org/2000/svg"
   xmlns="http://www.w3.org/2000/svg"
   xmlns:sodipodi="http://sodipodi.sourceforge.net/DTD/sodipodi-0.dtd"
   xmlns:inkscape="http://www.inkscape.org/namespaces/inkscape"
   width="600mm"
   height="400mm"
   viewBox="0 0 2125.9843 1417.3228"
   id="svg3576"
   version="1.1"
   inkscape:version="0.91 r13725"
   sodipodi:docname="tabletop_griding.svg">
  <defs
     id="defs3578" />
  <sodipodi:namedview
     id="base"
     pagecolor="#ffffff"
     bordercolor="#666666"
     borderopacity="1.0"
     inkscape:pageopacity="0.0"
     inkscape:pageshadow="2"
     inkscape:zoom="0.35"
     inkscape:cx="94.724409"
     inkscape:cy="1680.3894"
     inkscape:document-units="px"
     inkscape:current-layer="layer1"
     showgrid="false"
     inkscape:window-width="1366"
     inkscape:window-height="705"
     inkscape:window-x="-8"
     inkscape:window-y="-8"
     inkscape:window-maximized="1" />
  <metadata
     id="metadata3581">
    <rdf:RDF>
      <cc:Work
         rdf:about="">
        <dc:format>image/svg+xml</dc:format>
        <dc:type
           rdf:resource="http://purl.org/dc/dcmitype/StillImage" />
        <dc:title></dc:title>
      </cc:Work>
    </rdf:RDF>
  </metadata>
  <g
     inkscape:label="Capa 1"
     inkscape:groupmode="layer"
     id="layer1"
     transform="translate(0,364.96068)">
    <path
       d="M 0,-365.71431 0,1051.6085 M 40,-365.71431 40,1051.6085 M 80,-365.71431 80,1051.6085 m 40,-1417.32281 0,1417.32281 m 40,-1417.32281 0,1417.32281 m 40,-1417.32281 0,1417.32281 m 40,-1417.32281 0,1417.32281 m 40,-1417.32281 0,1417.32281 m 40,-1417.32281 0,1417.32281 m 40,-1417.32281 0,1417.32281 m 40,-1417.32281 0,1417.32281 m 40,-1417.32281 0,1417.32281 m 40,-1417.32281 0,1417.32281 m 40,-1417.32281 0,1417.32281 m 40,-1417.32281 0,1417.32281 m 40,-1417.32281 0,1417.32281 m 40,-1417.32281 0,1417.32281 m 40,-1417.32281 0,1417.32281 m 40,-1417.32281 0,1417.32281 m 40,-1417.32281 0,1417.32281 m 40,-1417.32281 0,1417.32281 m 40,-1417.32281 0,1417.32281 m 40,-1417.32281 0,1417.32281 m 40,-1417.32281 0,1417.32281 m 40,-1417.32281 0,1417.32281 m 40,-1417.32281 0,1417.32281 m 40,-1417.32281 0,1417.32281 m 40,-1417.32281 0,1417.32281 m 40,-1417.32281 0,1417.32281 m 40,-1417.32281 0,1417.32281 m 40,-1417.32281 0,1417.32281 m 40,-1417.32281 0,1417.32281 m 40,-1417.32281 0,1417.32281 m 40,-1417.32281 0,1417.32281 m 40,-1417.32281 0,1417.32281 m 40,-1417.32281 0,1417.32281 m 40,-1417.32281 0,1417.32281 m 40,-1417.32281 0,1417.32281 m 40,-1417.32281 0,1417.32281 m 40,-1417.32281 0,1417.32281 m 40,-1417.32281 0,1417.32281 m 40,-1417.32281 0,1417.32281 m 40,-1417.32281 0,1417.32281 m 40,-1417.32281 0,1417.32281 m 40,-1417.32281 0,1417.32281 m 40,-1417.32281 0,1417.32281 m 40,-1417.32281 0,1417.32281 m 40,-1417.32281 0,1417.32281 m 40,-1417.32281 0,1417.32281 m 40,-1417.32281 0,1417.32281 m 40,-1417.32281 0,1417.32281 m 40,-1417.32281 0,1417.32281 m 40,-1417.32281 0,1417.32281 m 40,-1417.32281 0,1417.32281 M 0,-365.71431 l 2125.9843,0 m -2125.9843,40 2125.9843,0 m -2125.9843,40 2125.9843,0 m -2125.9843,40 2125.9843,0 m -2125.9843,40 2125.9843,0 m -2125.9843,40 2125.9843,0 m -2125.9843,40 2125.9843,0 M 0,-85.714317 l 2125.9843,0 m -2125.9843,40 2125.9843,0 M 0,-5.7143172 l 2125.9843,0 M 0,34.285683 l 2125.9843,0 m -2125.9843,40 2125.9843,0 M 0,114.28569 l 2125.9843,0 m -2125.9843,40 2125.9843,0 m -2125.9843,40 2125.9843,0 m -2125.9843,40 2125.9843,0 m -2125.9843,40 2125.9843,0 m -2125.9843,40 2125.9843,0 m -2125.9843,40 2125.9843,0 m -2125.9843,40 2125.9843,0 m -2125.9843,40 2125.9843,0 m -2125.9843,40 2125.9843,0 m -2125.9843,40 2125.9843,0 m -2125.9843,40 2125.9843,0 m -2125.9843,40 2125.9843,0 m -2125.9843,40 2125.9843,0 m -2125.9843,40 2125.9843,0 m -2125.9843,40 2125.9843,0 m -2125.9843,40 2125.9843,0 m -2125.9843,40 2125.9843,0 m -2125.9843,40 2125.9843,0 m -2125.9843,40 2125.9843,0 m -2125.9843,40 2125.9843,0 m -2125.9843,40 2125.9843,0 m -2125.9843,40 2125.9843,0 M 0,1034.2857 l 2125.9843,0"
       style="fill:none;fill-opacity:0.75;fill-rule:evenodd;stroke:#000000;stroke-width:2pt;stroke-linecap:butt;stroke-linejoin:miter;stroke-opacity:1"
       id="path4134"
       inkscape:connector-curvature="0" />
  </g>
</svg>
